HIERARCHY
ROOT Hips
{
	OFFSET 0.00000 0.00000 0.00000
	CHANNELS 6 Xposition Yposition Zposition Zrotation Yrotation Xrotation 
	JOINT LHipJoint
	{
		OFFSET 0 0 0
		CHANNELS 3 Zrotation Yrotation Xrotation
		JOINT LeftHip
		{
			OFFSET 1.61328 -1.70571 0.84375
			CHANNELS 3 Zrotation Yrotation Xrotation
			JOINT LeftKnee
			{
				OFFSET 2.32400 -6.38513 0.00000
				CHANNELS 3 Zrotation Yrotation Xrotation
				JOINT LeftAnkle
				{
					OFFSET 2.58843 -7.11166 0.00000
					CHANNELS 3 Zrotation Yrotation Xrotation
					JOINT LeftToe
					{
						OFFSET 0.17200 -0.47257 2.47970
						CHANNELS 3 Zrotation Yrotation Xrotation
						End Site
						{
							OFFSET 0.00000 -0.00000 1.26912
						}
					}
				}
			}
		}
	}
	JOINT RHipJoint
	{
		OFFSET 0 0 0
		CHANNELS 3 Zrotation Yrotation Xrotation
		JOINT RightHip
		{
			OFFSET -1.49930 -1.70570 0.84375
			CHANNELS 3 Zrotation Yrotation Xrotation
			JOINT RightKnee
			{
				OFFSET -2.30458 -6.33178 0.00000
				CHANNELS 3 Zrotation Yrotation Xrotation
				JOINT RightAnkle
				{
					OFFSET -2.62261 -7.20556 0.00000
					CHANNELS 3 Zrotation Yrotation Xrotation
					JOINT RightToe
					{
						OFFSET -0.18709 -0.51403 2.51340
						CHANNELS 3 Zrotation Yrotation Xrotation
						End Site
						{
							OFFSET -0.00000 -0.00000 1.28858
						}
					}
				}
			}
		}
	}
	JOINT lowerback
	{
		OFFSET 0 0 0
		CHANNELS 3 Zrotation Yrotation Xrotation
		JOINT Chest
		{
			OFFSET -0.03798 2.19274 -0.19881
			CHANNELS 3 Zrotation Yrotation Xrotation
			JOINT Chest2
			{
				OFFSET -0.00024 2.19460 0.05248
				CHANNELS 3 Zrotation Yrotation Xrotation
				JOINT lowerneck
				{
					OFFSET 0 0 0
					CHANNELS 3 Zrotation Yrotation Xrotation
					JOINT Neck
					{
						OFFSET -0.00746 1.82323 0.17286
						CHANNELS 3 Zrotation Yrotation Xrotation
						JOINT Head
						{
							OFFSET 0.11826 1.82121 -0.27841
							CHANNELS 3 Zrotation Yrotation Xrotation
							End Site
							{
								OFFSET 0.03496 1.85543 -0.11495
							}
						}
					}
				}
				JOINT LeftCollar
				{
					OFFSET 0 0 0
					CHANNELS 3 Zrotation Yrotation Xrotation
					JOINT LeftShoulder
					{
						OFFSET 3.71926 0.78840 0.25473
CHANNELS 3 Zrotation Xrotation Yrotation
						JOINT LeftElbow
						{
OFFSET 0 -5.375870 0.000000
CHANNELS 3 Zrotation Xrotation Yrotation
							JOINT LeftWrist
							{
OFFSET 0 -3.359770 0.000000
CHANNELS 3 Zrotation Xrotation Yrotation
								JOINT lhand
								{
									OFFSET 0 0 0
CHANNELS 3 Zrotation Xrotation Yrotation
									JOINT LFingers
									{
OFFSET 0 -0.561860 0.000000
CHANNELS 3 Zrotation Xrotation Yrotation
										End Site
										{
OFFSET 0 -0.452990 0.000000
										}
									}
								}
								JOINT LThumb
								{
OFFSET 0 0.000000 0.000000
CHANNELS 3 Zrotation Xrotation Yrotation
									End Site
									{
OFFSET 0 -0.459900 0.459900
									}
								}
							}
						}
					}
				}
				JOINT RightCollar
				{
					OFFSET 0 0 0
					CHANNELS 3 Zrotation Yrotation Xrotation
					JOINT RightShoulder
					{
						OFFSET -3.65136 0.56074 0.01624
CHANNELS 3 Zrotation Xrotation Yrotation
						JOINT RightElbow
						{
OFFSET 0 -5.228190 0.000000
CHANNELS 3 Zrotation Xrotation Yrotation
							JOINT RightWrist
							{
OFFSET 0 -3.407640 0.000000
CHANNELS 3 Zrotation Xrotation Yrotation
								JOINT rhand
								{
									OFFSET 0 0 0
CHANNELS 3 Zrotation Xrotation Yrotation
									JOINT RFingers
									{
OFFSET 0 -0.583250 0.000000
CHANNELS 3 Zrotation Xrotation Yrotation
										End Site
										{
OFFSET 0 -0.470240 0.000000
										}
									}
								}
								JOINT RThumb
								{
OFFSET 0 0.000000 0.000000
CHANNELS 3 Zrotation Xrotation Yrotation
									End Site
									{
OFFSET 0 -0.477420 0.477420
									}
								}
							}
						}
					}
				}
			}
		}
	}
}
MOTION
Frames: 4
Frame Time: 0.008333333333333333
49.957000 16.610900 -7.261900 -27.877500 -85.902500 28.020800 0.000000 0.000000 0.000000 -17.436800 -0.594700 -6.436700 1.989900 8.845100 25.312000 1.007600 6.943000 -22.684400 0.064200 -1.634600 -4.496700 0.000000 0.000000 0.000000 20.814700 3.244100 -9.655400 -3.438800 -11.373600 33.550500 -2.115000 0.265500 -27.464400 -0.842300 -5.854000 16.361400 -0.051700 0.429300 -1.983200 0.650700 0.512600 3.622000 0.731500 0.224100 4.842600 -4.514100 -3.570000 -9.916000 7.760200 -4.617900 0.985700 3.120400 -2.129800 2.409200 -0.000000 0.000000 0.000000 0.605800 -4.320100 -25.446300 13.077900 -21.401300 2.481700 21.727000 -1.740000 -16.075300 0.000000 0.000000 0.000000 -7.125000 0.000000 0.000000 -5.750300 47.131600 0.303400 -0.000000 0.000000 0.000000 -2.315800 -1.210400 20.062400 -14.266200 -23.114000 -2.931800 -21.860700 -2.660100 -7.199700 0.000000 0.000000 0.000000 7.125000 0.000000 -0.000000 3.602500 22.233900 1.975300
49.941557 16.607955 -7.259455 -25.583400 -85.945055 25.673331 0.000000 0.000000 0.000000 -17.637894 -0.484819 -6.254125 1.966200 8.795345 25.157180 0.989881 7.023635 -22.588132 0.077415 -1.794601 -4.938241 0.000000 0.000000 0.000000 20.584779 3.010117 -9.633914 -3.455155 -11.397765 33.633351 -2.117255 0.453989 -27.421079 -0.829592 -5.810961 16.236906 -0.217442 0.392686 -2.068840 0.624445 0.475210 3.519385 0.795090 0.201565 4.783544 -4.594917 -3.559444 -9.567980 7.798981 -4.607326 1.067273 3.152911 -2.128286 2.375877 0.000000 0.000000 0.000000 0.521657 -4.254700 -25.078389 12.873154 -21.101072 2.407423 21.688219 -1.468798 -15.900886 0.000000 0.000000 0.000000 -7.125000 0.000000 0.000000 -5.747953 46.942159 0.276365 0.000000 0.000000 0.000000 -2.415587 -0.970825 20.229082 -14.278937 -23.132076 -2.936784 -21.701881 -2.758783 -7.377862 0.000000 0.000000 0.000000 7.125000 0.000000 0.000000 3.720231 22.051939 2.055575
49.933543 16.607410 -7.259400 -25.383250 -85.957094 25.478326 0.000000 0.000000 0.000000 -17.653144 -0.451946 -6.264385 1.965290 8.793480 25.151339 0.974957 7.113192 -22.522687 0.090861 -1.943862 -5.350453 0.000000 0.000000 0.000000 20.561335 2.979756 -9.622795 -3.455990 -11.398990 33.637749 -2.118080 0.491880 -27.414968 -0.828820 -5.808171 16.228893 -0.250598 0.393447 -2.093915 0.625159 0.479166 3.461214 0.814498 0.203168 4.736822 -4.620059 -3.582482 -9.567241 7.843034 -4.642528 1.176260 3.171515 -2.143015 2.417569 0.000000 0.000000 0.000000 0.483735 -4.305258 -24.837108 12.753056 -20.924254 2.364319 21.609760 -1.249143 -15.804548 0.000000 0.000000 0.000000 -7.125000 0.000000 0.000000 -5.800434 46.829703 0.262741 0.000000 0.000000 0.000000 -2.473361 -0.911279 20.331102 -14.293984 -23.153452 -2.942678 -21.647908 -2.841333 -7.482623 0.000000 0.000000 0.000000 7.125000 0.000000 0.000000 3.760671 21.942926 2.087312
49.927079 16.606531 -7.259235 -25.526169 -85.950669 25.622356 0.000000 0.000000 0.000000 -17.639017 -0.448303 -6.241943 1.966935 8.796835 25.161774 0.978196 7.111824 -22.549775 0.092151 -1.957488 -5.388152 0.000000 0.000000 0.000000 20.578008 2.965436 -9.597494 -3.454831 -11.397231 33.631522 -2.121017 0.488749 -27.434892 -0.822865 -5.787765 16.169865 -0.252702 0.390935 -2.115788 0.632529 0.476404 3.429069 0.823202 0.202035 4.715680 -4.639582 -3.594360 -9.615235 7.891506 -4.661238 1.249514 3.191014 -2.149178 2.455127 0.000000 0.000000 0.000000 0.473333 -4.273072 -24.800624 12.758845 -20.932782 2.366394 21.609285 -1.220040 -15.765718 0.000000 0.000000 0.000000 -7.125000 0.000000 0.000000 -5.792289 46.788739 0.256561 0.000000 0.000000 0.000000 -2.519585 -0.917492 20.409716 -14.288710 -23.145932 -2.940657 -21.653143 -2.839893 -7.474808 0.000000 0.000000 0.000000 7.125000 0.000000 0.000000 3.756726 21.950857 2.084431
